<svg t="1732194648840" class="icon" viewBox="0 0 1024 1024" version="1.1" xmlns="http://www.w3.org/2000/svg" p-id="7795" width="200" height="200"><path d="M885.12 487.68c35.008 0 63.808 26.496 67.52 60.48l0.448 7.424v220.608c-0.064 34.944-26.496 63.744-60.544 67.456l-7.36 0.448-65.728-0.64-98.816 74.048a29.696 29.696 0 0 1-30.848 2.944l-4.736-2.944L588.16 844.16H520.512c-35.008-0.064-63.744-26.496-67.456-60.544l-0.448-7.36V555.52c0-35.008 26.496-63.808 60.544-67.52l7.36-0.384h364.672zM744.064 64C792.64 64 832 107.84 832 161.92V352a32 32 0 1 1-64 0V153.152a24.96 24.96 0 0 0-20.16-24.768L743.36 128h-590.72a24.768 24.768 0 0 0-24.256 20.608L128 153.088v653.76c0 12.16 8.512 22.592 20.16 24.768l4.48 0.384H416a32 32 0 1 1 0 64H152C103.36 896 64 852.16 64 798.08V161.92C64 107.776 103.424 64 152 64h592z m141.12 483.008H520.512c-3.776 0-6.976 2.496-8.064 5.888L512 555.52v220.608c0 3.84 2.432 7.04 5.824 8.128l2.688 0.448h76.48c4.8 0 9.472 1.152 13.696 3.328l4.096 2.56 86.144 67.456 89.984-67.456a29.632 29.632 0 0 1 13.056-5.568l4.736-0.384h76.48c3.776 0 6.976-2.432 8.064-5.824l0.448-2.688V555.52a8.576 8.576 0 0 0-8.576-8.576zM580.48 639.36a32 32 0 1 1 0 64 32 32 0 0 1 0-64z m123.072-0.32a32 32 0 1 1 0 64 32 32 0 0 1 0-64z m125.824 0a32 32 0 1 1 0 64 32 32 0 0 1 0-64zM352 448a32 32 0 0 1 0 64h-128a32 32 0 0 1 0-64h128z m192-192a32 32 0 0 1 0 64h-320a32 32 0 0 1 0-64h320z"  p-id="7796"></path></svg>