<svg t="1731495429163" class="icon" viewBox="0 0 1024 1024" version="1.1" xmlns="http://www.w3.org/2000/svg" p-id="5473" width="200" height="200"><path d="M64.011784 928.070757h895.590887v95.929243H64.011784z m447.795444-703.732401a320.392363 320.392363 0 0 1 320.392363 320.392362v255.37156a63.890006 63.890006 0 0 1-63.890007 63.890007H255.87027a63.890006 63.890006 0 0 1-63.890007-63.890007V544.16532a320.392363 320.392363 0 0 1 319.826965-319.826964z m-95.929243 287.787728h-95.929243v255.936958h95.929243zM511.807228 0.440634a42.404872 42.404872 0 0 1 48.058854 48.058854v95.929243a42.404872 42.404872 0 0 1-48.058854 47.870388 42.404872 42.404872 0 0 1-48.058855-47.870388V48.499488A42.404872 42.404872 0 0 1 511.807228 0.440634zM159.941027 94.673682a42.404872 42.404872 0 0 1 65.586201 17.527347l47.870389 83.113548a42.404872 42.404872 0 0 1-17.527347 65.586201 42.216405 42.216405 0 0 1-65.397736-17.527347L142.41368 160.259883A42.404872 42.404872 0 0 1 159.941027 94.673682zM863.673429 94.673682a42.404872 42.404872 0 0 1 17.527347 65.586201l-48.058855 83.113548a42.216405 42.216405 0 0 1-65.397735 17.527347 42.593338 42.593338 0 0 1-17.715813-65.586201L799.029558 112.201029A42.404872 42.404872 0 0 1 863.673429 94.673682z" p-id="5474"></path></svg>