<svg t="1731418036062" class="icon" viewBox="0 0 1068 1024" version="1.1" xmlns="http://www.w3.org/2000/svg" p-id="2132" id="mx_n_1731418036062" width="200" height="200"><path d="M1051.247304 226.927304c-101.509565 159.833043-250.924522 31.298783-470.817391-142.380521-236.855652-187.614609-377.766957 79.872-391.880348 111.170782 11.308522 48.528696 162.326261 576.868174 162.326261 576.868174 47.994435-180.624696 145.007304-191.398957 302.83687-139.308522 171.987478 55.607652 310.093913-76.354783 352.478608-173.634782 28.182261-62.553043 50.665739-163.261217 61.974261-222.297044 2.80487-10.418087-11.308522-17.363478-16.962782-10.418087h0.044521z m-139.486608 185.655653c-36.507826 84.146087-135.257043 145.630609-227.461566 115.756521-118.205217-39.001043-217.800348-31.833043-293.977043 20.925218l-20.48-76.488348-0.75687-2.80487c-23.017739-86.060522-45.857391-172.165565-68.474434-258.359652 15.137391-22.349913 36.062609-46.525217 58.724174-62.642087 44.877913-31.833043 89.711304-31.031652 158.185739 23.28487 188.727652 148.969739 226.793739 176.795826 302.614261 209.964521 29.829565 13.401043 61.44 22.127304 93.629217 25.822609l-2.003478 4.585739zM104.626087 190.553043c-7.880348-32.589913-36.774957-53.337043-65.669565-44.432695a54.00487 54.00487 0 0 0-32.233739 28.271304 65.892174 65.892174 0 0 0-4.541218 45.723826l207.60487 757.448348c7.92487 32.50087 36.774957 53.292522 65.669565 44.343652 28.93913-8.904348 44.655304-41.405217 36.819478-76.933565L104.626087 190.508522z"  p-id="2133"></path></svg>